<svg viewBox="0 0 400 400" xmlns="http://www.w3.org/2000/svg">
  <defs>
    <!-- Gradient for main V -->
    <linearGradient id="vGradient" x1="0%" y1="0%" x2="100%" y2="100%">
      <stop offset="0%" style="stop-color:#f8fafc;stop-opacity:1" />
      <stop offset="30%" style="stop-color:#e2e8f0;stop-opacity:1" />
      <stop offset="70%" style="stop-color:#cbd5e1;stop-opacity:1" />
      <stop offset="100%" style="stop-color:#94a3b8;stop-opacity:1" />
    </linearGradient>
    
    <!-- Wild background gradients -->
    <radialGradient id="circularGradient" cx="50%" cy="50%" r="60%">
      <stop offset="0%" style="stop-color:#7c3aed;stop-opacity:0.9" />
      <stop offset="30%" style="stop-color:#c026d3;stop-opacity:0.8" />
      <stop offset="60%" style="stop-color:#e11d48;stop-opacity:0.7" />
      <stop offset="100%" style="stop-color:#f97316;stop-opacity:0.6" />
    </radialGradient>
    
    <linearGradient id="wavyGradient" x1="0%" y1="0%" x2="100%" y2="100%">
      <stop offset="0%" style="stop-color:#06b6d4;stop-opacity:0.8" />
      <stop offset="25%" style="stop-color:#8b5cf6;stop-opacity:0.7" />
      <stop offset="50%" style="stop-color:#ec4899;stop-opacity:0.8" />
      <stop offset="75%" style="stop-color:#f59e0b;stop-opacity:0.7" />
      <stop offset="100%" style="stop-color:#10b981;stop-opacity:0.8" />
    </linearGradient>
    
    <linearGradient id="accentGradient" x1="0%" y1="0%" x2="100%" y2="100%">
      <stop offset="0%" style="stop-color:#6366f1;stop-opacity:0.9" />
      <stop offset="50%" style="stop-color:#a855f7;stop-opacity:0.8" />
      <stop offset="100%" style="stop-color:#ec4899;stop-opacity:0.9" />
    </linearGradient>
    
    <!-- Shadow filter -->
    <filter id="shadow" x="-50%" y="-50%" width="200%" height="200%">
      <feDropShadow dx="3" dy="6" stdDeviation="12" flood-color="#000000" flood-opacity="0.5"/>
    </filter>
    
    <!-- Strong glow effect -->
    <filter id="strongGlow" x="-50%" y="-50%" width="200%" height="200%">
      <feGaussianBlur stdDeviation="8" result="coloredBlur"/>
      <feMerge> 
        <feMergeNode in="coloredBlur"/>
        <feMergeNode in="SourceGraphic"/>
      </feMerge>
    </filter>
    
    <!-- Soft glow -->
    <filter id="softGlow" x="-50%" y="-50%" width="200%" height="200%">
      <feGaussianBlur stdDeviation="4" result="coloredBlur"/>
      <feMerge> 
        <feMergeNode in="coloredBlur"/>
        <feMergeNode in="SourceGraphic"/>
      </feMerge>
    </filter>
  </defs>
  
  <!-- Wild circular background element -->
  <circle cx="150" cy="150" r="80" 
          fill="url(#circularGradient)" 
          filter="url(#strongGlow)" 
          opacity="0.7"/>
  
  <!-- Secondary circular element -->
  <circle cx="280" cy="250" r="60" 
          fill="url(#circularGradient)" 
          filter="url(#strongGlow)" 
          opacity="0.5"
          transform="rotate(45 280 250)"/>
  
  <!-- Wild wavy background shapes -->
  <path d="M 0 200 Q 50 150 100 180 Q 150 210 200 170 Q 250 130 300 160 Q 350 190 400 140 L 400 400 L 0 400 Z" 
        fill="url(#wavyGradient)" 
        filter="url(#softGlow)" 
        opacity="0.6"/>
  
  <!-- Additional wavy layer -->
  <path d="M 0 250 Q 80 200 160 230 Q 240 260 320 220 Q 360 200 400 180 L 400 400 L 0 400 Z" 
        fill="url(#wavyGradient)" 
        filter="url(#softGlow)" 
        opacity="0.4"/>
  
  <!-- Abstract geometric elements -->
  <polygon points="50,50 100,30 120,80 70,100" 
           fill="url(#accentGradient)" 
           filter="url(#strongGlow)" 
           opacity="0.8"/>
  
  <polygon points="350,80 380,60 400,90 370,110" 
           fill="url(#accentGradient)" 
           filter="url(#strongGlow)" 
           opacity="0.7"/>
  
  <!-- Dynamic flowing curves -->
  <path d="M 0 100 Q 100 80 200 120 Q 300 160 400 100" 
        fill="none" 
        stroke="url(#accentGradient)" 
        stroke-width="8" 
        filter="url(#strongGlow)" 
        opacity="0.6"/>
  
  <path d="M 0 300 Q 150 250 300 290 Q 350 300 400 280" 
        fill="none" 
        stroke="url(#accentGradient)" 
        stroke-width="6" 
        filter="url(#strongGlow)" 
        opacity="0.5"/>
  
  <!-- Bold energetic splashes -->
  <circle cx="320" cy="120" r="25" 
          fill="url(#accentGradient)" 
          filter="url(#strongGlow)" 
          opacity="0.8"/>
  
  <circle cx="80" cy="320" r="20" 
          fill="url(#accentGradient)" 
          filter="url(#strongGlow)" 
          opacity="0.7"/>
  
  <!-- Regal, upperbrow V - bold and prominent -->
  <path d="M 90 80 L 185 320 Q 200 350 215 320 L 310 80 L 270 80 L 205 280 Q 200 300 195 280 L 130 80 Z" 
        fill="url(#vGradient)" 
        filter="url(#shadow)"
        stroke="#1e293b" 
        stroke-width="3"/>
  
  <!-- Additional V highlight for extra refinement -->
  <path d="M 110 100 L 190 300 Q 200 320 210 300 L 290 100 L 270 100 L 205 280 Q 200 290 195 280 L 130 100 Z" 
        fill="none" 
        stroke="#f1f5f9" 
        stroke-width="2" 
        opacity="0.8"/>
  
  <!-- Subtle inner glow on V -->
  <path d="M 90 80 L 185 320 Q 200 350 215 320 L 310 80 L 270 80 L 205 280 Q 200 300 195 280 L 130 80 Z" 
        fill="none" 
        stroke="#ffffff" 
        stroke-width="1" 
        filter="url(#softGlow)" 
        opacity="0.6"/>
  
  <!-- Additional wild elements -->
  <path d="M 30 150 Q 60 120 90 140 Q 120 160 150 130" 
        fill="none" 
        stroke="url(#accentGradient)" 
        stroke-width="5" 
        filter="url(#strongGlow)" 
        opacity="0.7"/>
  
  <path d="M 250 350 Q 280 320 310 340 Q 340 360 370 330" 
        fill="none" 
        stroke="url(#accentGradient)" 
        stroke-width="5" 
        filter="url(#strongGlow)" 
        opacity="0.7"/>
</svg>